<?xml version="1.0" encoding="UTF-8"?><svg id="_?댁뼱_1" xmlns="http://www.w3.org/2000/svg" viewBox="0 0 92.13 102.69"><defs><style>.cls-1{fill:none;stroke:#6d440f;stroke-miterlimit:10;stroke-width:1.42px;}.cls-2{fill:#d68e25;}</style></defs><path class="cls-2" d="M20.44,0h25.63V51.35H.38V20.06C.38,8.99,9.37,0,20.44,0Z"/><path class="cls-1" d="M.38,34.95l22.59,14.54c3.78,2.43,8.74-.28,8.74-4.77V0"/><path class="cls-1" d="M46.07,37h-13.57c-.43,0-.78-.33-.78-.74V0"/><path class="cls-2" d="M.38,51.35H46.07v51.35H20.44C9.37,102.69,.38,93.71,.38,82.64v-31.29H.38Z"/><path class="cls-1" d="M.38,67.74l22.59-14.54c3.78-2.43,8.74,.28,8.74,4.77v44.72"/><path class="cls-1" d="M46.07,65.69h-13.57c-.43,0-.78,.33-.78,.74v36.26"/><path class="cls-2" d="M46.07,0h45.68V51.35h-25.63c-11.07,0-20.06-8.99-20.06-20.06V0h0Z" transform="translate(137.82 51.35) rotate(-180)"/><path class="cls-1" d="M91.75,34.95l-22.59,14.54c-3.78,2.43-8.74-.28-8.74-4.77V0"/><path class="cls-1" d="M46.07,37h13.57c.43,0,.78-.33,.78-.74V0"/><path class="cls-2" d="M66.12,51.35h25.63v51.35H46.07v-31.29c0-11.07,8.99-20.06,20.06-20.06Z" transform="translate(137.82 154.04) rotate(-180)"/><path class="cls-1" d="M91.75,67.74l-22.59-14.54c-3.78-2.43-8.74,.28-8.74,4.77v44.72"/><path class="cls-1" d="M46.07,65.69h13.57c.43,0,.78,.33,.78,.74v36.26"/></svg>