<?xml version="1.0" encoding="UTF-8"?><svg id="_?댁뼱_1" xmlns="http://www.w3.org/2000/svg" viewBox="0 0 756.66 751.31"><defs><style>.cls-1{fill:#fff;}</style></defs><path d="M750.67,440.7c-37.32,68.24-75.55,135.99-114.45,203.33-5.05,8.76-14.45,17.21-23.78,20.93-72.25,28.76-144.84,56.71-217.74,83.79-9.28,3.45-22.03,3.4-31.33-.03-72.98-26.88-145.64-54.64-217.99-83.15-9.4-3.71-19.18-11.73-24.2-20.41-38.96-67.31-77.21-135.04-114.51-203.28-5.4-9.88-7.85-23.67-6.12-34.77,11.73-74.99,24.55-149.81,38.16-224.48,1.8-9.9,8.04-20.97,15.65-27.5C111.03,106.49,168.29,58.52,226.15,11.3c7.8-6.36,19.87-10.12,30.1-10.41,40.71-1.17,81.48-.48,122.22-.48v-.15c40.13,0,80.29-.86,120.37,.55,11.29,.4,24.47,4.84,33.15,11.89,57.02,46.3,113.34,93.48,169.06,141.34,8.07,6.93,14.94,18.46,16.85,28.87,13.69,74.66,26.37,149.51,38.17,224.49,1.68,10.66-.27,23.91-5.4,33.3Z"/><path class="cls-1" d="M756.07,407.4c-11.8-74.98-24.48-149.83-38.17-224.49-1.91-10.41-8.78-21.94-16.85-28.87-55.72-47.86-112.04-95.04-169.06-141.34-8.68-7.05-21.86-11.49-33.15-11.89-40.08-1.41-80.24-.55-120.37-.55v.15c-40.74,0-81.51-.69-122.22,.48-10.23,.29-22.3,4.05-30.1,10.41C168.29,58.52,111.03,106.49,54.36,155.13c-7.61,6.53-13.85,17.6-15.65,27.5C25.1,257.3,12.28,332.12,.55,407.11c-1.73,11.1,.72,24.89,6.12,34.77,37.3,68.24,75.55,135.97,114.51,203.28,5.02,8.68,14.8,16.7,24.2,20.41,72.35,28.51,145.01,56.27,217.99,83.15,9.3,3.43,22.05,3.48,31.33,.03,72.9-27.08,145.49-55.03,217.74-83.79,9.33-3.72,18.73-12.17,23.78-20.93,38.9-67.34,77.13-135.09,114.45-203.33,5.13-9.39,7.08-22.64,5.4-33.3Zm-64.73-214.92c3.57,3.21,9.61,5.97,10.31,9.72,5.52,29.35,10.01,58.9,14.82,88.39-1.83,.55-3.67,1.1-5.5,1.65-10.38-28.5-21.22-56.86-30.47-85.72-1.03-3.19,7.01-9.29,10.84-14.04Zm-78.02-86.35c20.22,16.94,40.71,33.58,60.4,51.11,3.43,3.05,3.54,9.84,5.19,14.9-6.53-.19-16.04,2.33-19.08-1.02-17.7-19.5-33.89-40.39-50.59-60.81,1.36-1.39,2.72-2.79,4.08-4.18ZM223.68,439.11c46.16-76.66,92.69-153.11,139.24-229.53,4.09-6.71,9-12.9,15.87-22.65,6.61,9.12,11.27,14.68,14.99,20.82,47.03,77.57,93.98,155.2,140.83,232.89,13.06,21.65,11.4,24.58-13.92,24.6-93.83,.08-187.65,.11-281.48-.21-7.63-.02-15.25-2.86-22.87-4.4,2.38-7.21,3.52-15.18,7.34-21.52Zm-30.38,7.35c-4.96-10.44-7.71-15.02-9.39-19.97-22.98-67.66-45.55-135.47-68.87-203.01-4.84-14-2.07-21.3,13-22.9,70.41-7.46,140.82-14.99,211.25-22.33,3.45-.36,7.06,.83,16.29,2.06-54.61,89.56-107.13,175.7-162.28,266.15ZM402.01,179.8c16.28,0,27.68-1,38.85,.16,61.9,6.46,123.75,13.49,185.63,20.21,13.16,1.43,21.38,5.88,16.13,21.32-23.63,69.47-47.06,139.02-70.74,208.47-1.29,3.78-4.27,6.98-9.24,14.84-54.07-89.2-106.38-175.49-160.63-265ZM501.08,40.01c7.27-8.36,13.83-11.9,22.28-1.38,33.94,42.21,68.13,84.22,102.06,126.45,2.07,2.57,2.69,6.3,6.03,14.52-76.9-8.44-150.19-16.49-226.65-24.88,4.04-6.85,5.82-11.25,8.77-14.64,29.08-33.44,58.44-66.63,87.51-100.07Zm-227.05-18.69h207.91c.8,1.53,1.6,3.06,2.4,4.58-23.71,27.29-47.38,54.61-71.17,81.83-8.11,9.28-15.96,18.93-25.13,27.06-3.46,3.07-13.22,5.02-15.18,2.9-34.15-36.86-67.52-74.44-101.07-111.86,.75-1.51,1.49-3.01,2.24-4.51Zm-42.02,18.83c8.44-10.62,14.89-10.46,23.48-.68,29.31,33.39,59.03,66.43,88.38,99.79,2.96,3.37,4.46,8.02,8.44,15.45-76.73,8.48-150.19,16.6-223.66,24.72-.82-1.67-1.63-3.33-2.44-5,3.04-4.94,5.6-10.27,9.21-14.76,32.15-39.88,64.71-79.43,96.59-119.52Zm-88.93,66.15c1.48,1.41,2.96,2.81,4.44,4.21-17.26,21.18-33.94,42.89-52.35,63.01-3.06,3.36-13.64-.16-20.75-.5-.6-2.53-1.21-5.06-1.81-7.6,23.49-19.7,46.98-39.41,70.47-59.12ZM56.59,191.19c17.94,2.53,23.76,8.5,18.09,23.04-10.4,26.68-20.13,53.62-30.15,80.46-1.67-.49-3.35-.97-5.03-1.46,5.6-33.45,11.2-66.9,17.09-102.04Zm-28.71,213.23c19.6-55.06,40.5-109.65,61.18-164.31,.34-.88,2-1.25,7.41-4.42,24.44,72.66,48.37,143.81,73.34,218.05-8.13,0-12.31,.87-15.99-.13-38.59-10.52-77.25-20.87-115.46-32.66-4.96-1.53-11.9-12.56-10.48-16.53Zm109.92,201.68c-.83,2.77-2.96,5.14-7.91,13.43-33.18-58.53-64.38-113.6-97.72-172.42,9.4,0,13.05-.77,16.25,.11,36.16,9.96,72.2,20.32,108.37,30.23,12.33,3.38,17.18,9.11,12.86,22.66-11.2,35.14-21.2,70.67-31.85,105.99Zm19.94,10.58c9.64-33.76,19.91-67.35,30.18-100.92,1.35-4.42,4.29-8.35,8.23-15.79,49.72,54.2,97.65,106.46,148.99,162.43-9.74,1.5-14.22,3.2-18.43,2.67-50.1-6.28-100.2-12.65-150.23-19.53-22.92-3.15-25.11-6.6-18.74-28.86Zm209.5,99.96c-2.69,12.83-12.41,7.17-19.28,4.57-33.4-12.63-66.59-25.78-99.85-38.75,.22-1.6,.44-3.2,.67-4.81,35.33,4.32,70.72,8.3,105.99,13.11,15.9,2.17,14.76,14.97,12.47,25.88Zm-2.69-65.76c-45.01-50.03-90.84-99.31-136.25-148.96-3.14-3.43-5.42-7.64-10.45-14.87h321.81c-7.47,9.72-11.72,16.19-16.87,21.83-42.88,46.96-86.16,93.56-128.74,140.79-10.36,11.49-17.86,14.15-29.5,1.21Zm42.07,70.76c-3.75,1.34-13.59-3.39-14.4-6.79-2.65-11.14-2.28-22.84,13.63-24.81,26.32-3.27,52.64-6.6,78.96-9.83,9.1-1.12,18.23-2.03,27.34-3.04,.48,1.32,.95,2.65,1.42,3.97-35.59,13.67-71.06,27.67-106.95,40.5Zm181.82-77.68c-28.02,3.94-56.08,7.66-84.14,11.41-23.78,3.18-47.57,6.36-71.39,9.31-4.66,.58-9.46,.08-14.2,.08-1.13-1.74-2.25-3.49-3.38-5.23,47.65-52.38,95.31-104.75,144.13-158.41,3.98,5.29,7.07,7.77,8.03,10.91,11.49,37.68,22.48,75.52,34.02,113.19,3.83,12.52-2.29,17.22-13.07,18.74Zm38.34-24.56c-3.98-6.86-6.8-10.16-7.96-13.97-10.65-34.73-20.72-69.63-31.62-104.28-4.28-13.61-.66-20.1,13.46-23.8,36.31-9.52,72.27-20.42,108.43-30.54,3.2-.9,6.87-.12,15.47-.12-33.28,58.79-64.78,114.43-97.78,172.71Zm87.02-196.11c-31.74,7.46-62.84,17.58-94.28,26.33-8.74,2.43-17.74,3.96-26.62,5.9-1.65-1.35-3.31-2.71-4.96-4.06,24-71.56,48-143.11,72.01-214.66,1.91,.06,3.82,.12,5.73,.17,2.57,5.17,5.63,10.17,7.66,15.54,18.01,47.84,35.47,95.89,53.94,143.55,5.94,15.32,4.45,23.02-13.48,27.23Z"/></svg>